<svg xmlns="http://www.w3.org/2000/svg" xmlns:xlink="http://www.w3.org/1999/xlink" viewBox="0 0 310.17 345.85"><defs><style>.cls-1{fill:#d2d2cd;}.cls-2{fill:#f8f8f1;}.cls-3{fill:#202347;}.cls-3,.cls-5,.cls-6,.cls-7,.cls-8,.cls-9{fill-rule:evenodd;}.cls-4{fill:#ffe54e;}.cls-5{fill:#1d1b3a;}.cls-6{fill:#6e4795;}.cls-7{fill:#3c2259;}.cls-10,.cls-8{fill:#4b266d;}.cls-9{fill:#55336d;}.cls-11{fill:none;stroke:#b56aa7;stroke-miterlimit:10;}.cls-12{fill:url(#linear-gradient);}</style><linearGradient id="linear-gradient" x1="-481.88" y1="-295.34" x2="-481.88" y2="-41.09" gradientTransform="translate(633.94 350.96)" gradientUnits="userSpaceOnUse"><stop offset="0.34" stop-color="#fff" stop-opacity="0.2"/><stop offset="1" stop-color="#b56aa7" stop-opacity="0.6"/></linearGradient></defs><g id="Layer_2" data-name="Layer 2"><g id="Layer_1-2" data-name="Layer 1"><rect class="cls-1" x="71.06" y="72.31" width="167.31" height="199.94" transform="translate(309.42 344.56) rotate(180)"/><rect class="cls-2" x="98.1" y="99.36" width="138.23" height="176.6" transform="translate(334.44 375.32) rotate(180)"/><path class="cls-3" d="M77,226.68c2.09-4.92,38.06-76.22,38.06-76.22l34.5,53.47,45-71.29,45.37,60.23V271H77Z"/><circle class="cls-4" cx="149.44" cy="132.64" r="25.42"/><polygon class="cls-5" points="98.11 184.2 83.88 212.64 83.48 267.01 98.11 267.01 98.11 184.2"/><path class="cls-6" d="M239.92,273.75V72.1H70.25V273.75ZM87.78,89.6H220.69V256.25H87.78Z"/><polygon class="cls-7" points="86.03 87.85 77.01 78.82 77.01 267.03 86.03 258 86.03 87.85"/><polygon class="cls-8" points="222.44 87.85 222.44 244.48 222.44 258 231.46 267.03 231.46 251.79 231.46 78.82 222.44 87.85"/><polygon class="cls-8" points="222.44 258 120.47 258 86.03 258 77.01 267.03 86.31 267.03 231.46 267.03 222.44 258"/><polygon class="cls-7" points="220.97 78.82 123.92 78.82 77.01 78.82 86.03 87.85 141.76 87.85 195.54 87.85 222.44 87.85 231.46 78.82 220.97 78.82"/><path class="cls-6" d="M260,293.85V52H50.15V293.85ZM70.94,72.76H237.53V273.09H70.94Z"/><polygon class="cls-8" points="70.94 72.76 58.65 62.21 58.65 283.64 70.94 273.09 70.94 72.76"/><polygon class="cls-9" points="237.53 72.76 237.53 259.57 237.53 273.09 249.82 283.64 249.82 275.39 249.82 62.21 237.53 72.76"/><polygon class="cls-9" points="237.53 273.09 96.65 273.09 70.94 273.09 58.65 283.64 74.93 283.64 249.82 283.64 237.53 273.09"/><polygon class="cls-8" points="244.57 62.21 91.6 62.21 58.65 62.21 70.94 72.76 126.89 72.76 210.63 72.76 237.53 72.76 249.82 62.21 244.57 62.21"/><polygon class="cls-10" points="262.1 12.7 297.47 12.7 297.47 48.07 310.17 48.07 310.17 12.7 310.17 0 297.47 0 262.1 0 262.1 12.7"/><polygon class="cls-10" points="48.07 333.15 12.7 333.15 12.7 297.78 0 297.78 0 333.15 0 345.85 12.7 345.85 48.07 345.85 48.07 333.15"/><polygon class="cls-10" points="291.41 297.78 291.41 333.15 256.04 333.15 256.04 345.85 291.41 345.85 304.11 345.85 304.11 333.15 304.11 297.78 291.41 297.78"/><polygon class="cls-10" points="12.7 48.07 12.7 12.7 48.07 12.7 48.07 0 12.7 0 0 0 0 12.7 0 48.07 12.7 48.07"/><line class="cls-11" y1="198.37" x2="304.11" y2="198.37"/><rect class="cls-12" x="20.91" y="198.37" width="262.28" height="112.12" transform="translate(304.11 508.87) rotate(180)"/></g></g></svg>